<?xml version="1.0" encoding="UTF-8"?>
<svg width="676px" height="188px" viewBox="0 0 676 188" version="1.1" xmlns="http://www.w3.org/2000/svg" xmlns:xlink="http://www.w3.org/1999/xlink">
    <!-- Generator: Sketch 46.2 (44496) - http://www.bohemiancoding.com/sketch -->
    <title>Logo</title>
    <desc>Created with Sketch.</desc>
    <defs>
        <path d="M73.4519,39.6112 L56.6279,39.6112 L39.3039,39.6112 C41.3139,34.2052 43.6989,30.1982 46.4619,27.4312 C49.5989,24.4232 52.9919,22.4102 56.6279,21.5352 C58.1389,21.1562 59.7649,20.9022 61.4009,20.9022 C66.1739,20.9022 69.6819,22.4102 71.8209,25.2972 C73.9519,28.1902 74.4519,32.9562 73.4519,39.6112 M92.7899,7.8432 C86.3859,3.8342 79.8579,0.4412 65.4169,0.4412 C62.5379,0.4412 59.5189,0.6902 56.6279,1.0672 C45.2049,2.8242 34.2769,7.8432 25.2389,14.8772 C13.8159,23.5392 5.2709,34.9642 2.1439,47.0132 C0.8819,51.7902 0.1339,55.4322 -0.0001,58.9442 L-0.0001,60.8362 C0.1339,65.5992 1.6409,70.1232 4.8979,76.2652 C10.7979,87.6962 25.6219,94.7282 40.4369,94.9792 C46.7149,95.1132 51.8649,94.6052 56.6279,93.4662 C63.1579,91.9612 68.6789,89.3292 74.9579,85.9362 C85.6269,80.0292 92.2819,73.6442 99.8089,62.3412 L66.6689,62.3412 C64.9119,67.3502 60.1439,70.8822 58.0149,72.0032 C57.5099,72.1282 57.1359,72.3742 56.6279,72.6282 C53.6089,73.8902 50.5979,74.5182 47.5899,74.5182 C42.1919,74.5182 38.4269,72.5082 36.0419,68.6122 C34.4049,65.9782 34.0279,61.8252 34.9099,56.1782 L56.6279,56.1782 L103.3299,56.1782 C108.1119,45.2582 108.6079,36.0952 106.3429,27.3012 C103.9589,18.5222 99.1859,11.7402 92.7899,7.8432" id="path-1"></path>
    </defs>
    <g id="Page-1" stroke="none" stroke-width="1" fill="none" fill-rule="evenodd">
        <g id="Logo">
            <g id="Page-1">
                <path d="M270.53,151.3204 C268.271,161.9254 257.125,168.5054 239.649,168.5054 C231.489,168.5054 226.776,165.0694 228.055,159.0554 C229.055,154.3394 232.159,151.9004 238.47,151.1794 L259.473,148.7394 C265.207,148.0264 269.097,147.3104 271.528,146.5934 L270.53,151.3204 Z M260.85,103.1824 C237.066,103.1824 214.448,106.4814 206.678,129.5474 L237.044,129.5474 C239.879,122.9554 245.994,119.8064 257.171,119.8064 C270.495,119.8064 275.761,122.6634 274.597,128.1064 C273.75,132.1254 272.092,133.8404 264.085,134.4134 L233.438,136.4234 C211.356,137.8524 198.27,144.1574 194.522,161.7734 C191.082,177.9694 202.554,185.9924 227.339,185.9924 C242.666,185.9924 255.559,183.9854 266.062,175.6744 C265.752,177.8274 265.6,180.5484 266.116,182.8374 L296.494,182.8374 C294.999,178.3994 294.924,175.3914 296.331,168.7974 L304.673,129.5474 C309.299,107.7654 289.07,103.1824 260.85,103.1824 L260.85,103.1824 Z" id="Fill-1" fill="#00A0E2"></path>
                <polygon id="Fill-3" fill="#00A0E2" points="333.6915 77.9708 311.3945 182.8368 341.7645 182.8368 364.0615 77.9708"></polygon>
                <path d="M439.9444,105.1874 L431.5834,144.4424 C428.8744,157.1954 419.4544,163.0634 408.7114,163.0634 C398.5464,163.0634 393.9324,158.4784 396.7344,145.3064 L405.2584,105.1874 L374.8914,105.1874 L364.3794,154.6154 C359.4164,177.9704 372.0404,185.9924 390.6674,185.9924 C405.9944,185.9924 418.3534,180.4044 426.1334,172.8124 L426.4194,172.8124 L424.2814,182.8374 L453.8024,182.8374 L470.3064,105.1874 L439.9444,105.1874 Z" id="Fill-5" fill="#00A0E2"></path>
                <path d="M546.1766,151.3204 C543.9276,161.9254 532.7806,168.5054 515.3036,168.5054 C507.1316,168.5054 502.4226,165.0694 503.6966,159.0554 C504.6996,154.3394 507.8026,151.9004 514.1146,151.1794 L535.1196,148.7394 C540.8576,148.0264 544.7296,147.3104 547.1896,146.5934 L546.1766,151.3204 Z M536.4896,103.1824 C512.7056,103.1824 490.0936,106.4814 482.3266,129.5474 L512.6996,129.5474 C515.5366,122.9554 521.6506,119.8064 532.8156,119.8064 C546.1476,119.8064 551.4066,122.6634 550.2496,128.1064 C549.3966,132.1254 547.7516,133.8404 539.7356,134.4134 L509.0866,136.4234 C487.0036,137.8524 473.9146,144.1574 470.1676,161.7734 C466.7206,177.9694 478.2056,185.9924 502.9876,185.9924 C518.3136,185.9924 531.2086,183.9854 541.7236,175.6744 C541.3976,177.8274 541.2596,180.5484 541.7646,182.8374 L572.1406,182.8374 C570.6456,178.3994 570.5686,175.3914 571.9746,168.7974 L580.3196,129.5474 C584.9456,107.7654 564.7196,103.1824 536.4896,103.1824 L536.4896,103.1824 Z" id="Fill-7" fill="#00A0E2"></path>
                <path d="M665.867,103.1827 C652.11,103.1827 638.737,110.2047 630.523,120.5287 L630.232,120.5287 L633.494,105.1877 L603.549,105.1877 L587.041,182.8377 L617.405,182.8377 L623.811,152.7597 C626.794,138.7077 636.42,129.8307 653.755,129.8307 C659.484,129.8307 666.404,130.9757 669.972,132.4137 L675.998,104.0457 C673.113,103.4687 669.158,103.1827 665.867,103.1827" id="Fill-9" fill="#00A0E2"></path>
                <path d="M304.6602,13.977 L284.8592,46.67 L280.4852,52.732 C280.4852,52.732 274.8092,60.458 267.4242,60.324 C262.1902,60.227 260.6452,59.575 257.7442,57.99 C254.8472,56.406 249.5192,52.976 249.5192,52.976 C249.5192,52.976 244.0532,50.061 237.5662,50.36 C237.5662,50.36 233.0552,50.561 229.1192,55.663 C224.9932,60.979 172.5322,132.413 172.5322,132.413 L210.1322,78.654 L224.9272,57.284 L228.6462,52.436 C228.6462,52.436 233.3872,46.711 241.7022,47.903 C250.0132,49.086 252.1392,52.066 256.9552,54.775 C261.7702,57.478 265.4692,58.006 268.1082,57.746 C270.7382,57.478 273.6222,56.51 279.4022,49.792 L285.2742,40.901 L302.2382,12.878 L299.5822,11.394 L305.5422,9.726 L306.8322,15.415 L304.6602,13.977 Z M310.3482,0.449 C310.1042,0.1 309.9362,0.008 309.5162,0 L288.6162,5.979 L288.5652,5.982 L289.4332,6.49 L290.9962,7.429 C290.8422,7.707 275.5902,35.208 270.7282,41.035 C270.7282,41.035 266.9452,46.638 261.6452,43.777 C257.3612,41.451 250.4252,37.663 244.3452,36.486 C242.9032,36.208 240.6252,35.7 238.2912,35.769 C232.2182,35.926 223.2502,36.619 214.0412,50.431 C204.9402,64.072 196.2192,77.846 195.6502,78.736 L146.6372,150.817 L140.3672,104.207 L111.0102,104.207 L124.5622,180.737 L152.3622,180.737 L217.8982,90.515 L217.9182,90.525 L233.5052,69.15 C233.5052,69.15 237.8522,61.519 245.1442,64.987 C248.8852,66.77 254.8152,70.088 254.8152,70.088 C254.8152,70.088 256.1082,70.727 258.1472,71.223 C262.1662,72.214 269.4212,72.624 277.4152,68.864 C284.3842,65.591 288.8422,60.736 291.3702,57.219 C293.2132,54.636 294.9132,51.872 294.9132,51.872 L314.3182,20.72 L316.7912,22.282 L310.3482,0.449 Z" id="Fill-11" fill="#FF633F"></path>
                <g id="Group-15" transform="translate(0.000000, 92.561000)">
                    <mask id="mask-2" fill="white">
                        <use xlink:href="#path-1"></use>
                    </mask>
                    <use id="Fill-13" fill="#00A0E2" xlink:href="#path-1"></use>
                </g>
            </g>
        </g>
    </g>
</svg>